HIERARCHY
ROOT Hips
{
	OFFSET 0.000000 88.474243 0.000000
	CHANNELS 6 Xposition Yposition Zposition Zrotation Yrotation Xrotation 
	JOINT Hips_Spine
	{
		OFFSET 0.000000 0.000000 0.000000
		CHANNELS 3 Zrotation Yrotation Xrotation
		JOINT Spine
		{
			OFFSET 0.005100 8.711998 -0.691000
			CHANNELS 3 Zrotation Yrotation Xrotation
			JOINT Spine1
			{
				OFFSET -0.009200 8.660301 -1.275000
				CHANNELS 3 Zrotation Yrotation Xrotation
				JOINT Spine2
				{
					OFFSET 0.006300 9.852501 -1.857000
					CHANNELS 3 Zrotation Yrotation Xrotation
					JOINT Spine2_Neck
					{
						OFFSET 0.000000 0.000000 0.000000
						CHANNELS 3 Zrotation Yrotation Xrotation
						JOINT Neck
						{
							OFFSET 0.016300 11.420799 -0.263300
							CHANNELS 3 Zrotation Yrotation Xrotation
							End Site #name: Head
							{
								OFFSET -0.019200 9.262405 2.362500
							}
						}
					}
					JOINT Spine2_LeftShoulder
					{
						OFFSET 0.000000 0.000000 0.000000
						CHANNELS 3 Zrotation Yrotation Xrotation
						JOINT LeftShoulder
						{
							OFFSET 5.616900 6.732201 -0.345700
							CHANNELS 3 Zrotation Yrotation Xrotation
							JOINT LeftArm
							{
								OFFSET 10.664888 -0.183372 -2.440700
								CHANNELS 3 Zrotation Yrotation Xrotation
								JOINT LeftForeArm
								{
									OFFSET 27.459126 0.000000 0.000000
									CHANNELS 3 Zrotation Yrotation Xrotation
									End Site #name: LeftHand
									{
										OFFSET 21.306858 0.000000 0.000000
									}
								}
							}
						}
					}
					JOINT Spine2_RightShoulder
					{
						OFFSET 0.000000 0.000000 0.000000
						CHANNELS 3 Zrotation Yrotation Xrotation
						JOINT RightShoulder
						{
							OFFSET -5.580300 6.737503 -0.344400
							CHANNELS 3 Zrotation Yrotation Xrotation
							JOINT RightArm
							{
								OFFSET -10.679335 -0.188484 -2.383900
								CHANNELS 3 Zrotation Yrotation Xrotation
								JOINT RightForeArm
								{
									OFFSET -27.503529 0.000000 0.000000
									CHANNELS 3 Zrotation Yrotation Xrotation
									End Site #name: RightHand
									{
										OFFSET -21.306808 0.000000 0.000000
									}
								}
							}
						}
					}
				}
			}
		}
	}
	JOINT Hips_LeftUpLeg
	{
		OFFSET 0.000000 0.000000 0.000000
		CHANNELS 3 Zrotation Yrotation Xrotation
		JOINT LeftUpLeg
		{
			OFFSET 6.857700 -6.739601 0.312100
			CHANNELS 3 Zrotation Yrotation Xrotation
			JOINT LeftLeg
			{
				OFFSET -0.367590 -34.731552 -4.572400
				CHANNELS 3 Zrotation Yrotation Xrotation
				End Site #name: LeftFoot
				{
					OFFSET 0.367590 -34.656704 -6.067400
				}
			}
		}
	}
	JOINT Hips_RightUpLeg
	{
		OFFSET 0.000000 0.000000 0.000000
		CHANNELS 3 Zrotation Yrotation Xrotation
		JOINT RightUpLeg
		{
			OFFSET -6.876100 -6.733299 0.301000
			CHANNELS 3 Zrotation Yrotation Xrotation
			JOINT RightLeg
			{
				OFFSET 0.347353 -34.795158 -4.515900
				CHANNELS 3 Zrotation Yrotation Xrotation
				End Site #name: RightFoot
				{
					OFFSET -0.347353 -34.589367 -6.070300
				}
			}
		}
	}
}
MOTION
Frames: 6
Frame Time: 0.041667
0.171297 0.042749 -0.012346 1.216556 20.261153 -6.229266 -0.000000 0.000000 0.000000 -0.666074 -1.461210 0.708564 0.113011 -1.502079 -1.275589 0.000000 0.000000 0.000000 -0.109712 -0.920535 -1.553182 4.250229 1.228723 -5.796493 0.426539 -1.769831 -2.412900 -15.660334 -7.738626 2.086807 -48.825852 -2.140712 7.703585 0.232507 -28.306020 6.433916 0.158069 -1.263536 -0.650699 13.661651 11.177506 4.189751 58.214736 -5.353666 -4.873813 -0.700587 53.017940 0.632556 0.000000 0.000000 0.000000 -10.007401 19.315688 -5.634076 -1.391324 -2.409182 23.709952 0.000000 0.000000 0.000000 -4.651133 15.154579 -8.188576 7.137892 4.513804 -2.213894 
0.751326 -0.040986 0.165223 3.132190 21.797350 -6.688637 -0.000000 0.000000 0.000000 -3.107188 -2.182140 0.176037 0.393719 -1.464850 -1.612590 0.000000 0.000000 0.000000 -0.057290 -0.895506 -2.566795 4.806050 -0.426521 -4.476486 -0.206247 -1.600725 -3.378608 -20.844651 -4.226101 0.716892 -47.116146 -2.347283 -1.329719 -0.432516 -21.627129 4.337615 -0.033280 -1.423542 -0.920037 13.890356 8.029966 1.628445 60.541943 -0.646643 -5.249583 -0.828948 53.538366 -0.862275 0.000000 0.000000 -0.000000 -12.841994 16.875632 -2.736899 -0.610769 0.922811 21.703656 0.000000 0.000000 0.000000 -8.328686 17.282275 -8.021061 7.494373 5.614357 -0.707976 
1.096842 -0.089393 0.232907 4.650060 20.165585 -6.847384 -0.000000 0.000000 -0.000000 -4.639472 -3.446821 0.496815 0.323663 -1.297299 -1.722903 0.000000 0.000000 0.000000 0.445101 -1.358405 -2.593240 4.600671 -1.159262 -5.330688 -0.468757 -1.484691 -2.998753 -24.362773 -3.470494 2.153510 -47.221054 3.892175 -3.722285 -0.956962 -22.642906 4.189179 0.064455 -1.465959 -0.846171 12.720381 6.984178 1.861239 59.420798 2.259190 -2.309175 -0.395887 48.388182 -0.721311 0.000000 0.000000 -0.000000 -14.651216 16.734080 -0.804550 -1.205558 1.249046 20.389861 0.000000 0.000000 0.000000 -10.392016 18.587966 -10.382087 7.432043 5.001863 4.561685 
1.393460 -0.132414 0.242734 5.516644 18.263207 -6.703516 -0.000000 0.000000 -0.000000 -5.687796 -3.183511 1.427398 0.313690 -1.240685 -1.545622 0.000000 0.000000 0.000000 0.622090 -1.513677 -2.413294 4.416898 -2.731847 -4.325607 -0.406340 -1.504518 -2.786411 -25.780805 -2.970443 3.281031 -46.599636 4.716122 -3.128659 -0.574112 -22.205137 6.233883 0.147267 -1.423889 -0.665356 11.389692 6.892094 1.845712 58.937589 5.340802 -0.108308 -0.277205 49.875001 -0.680501 0.000000 0.000000 -0.000000 -15.783373 16.855831 -0.324059 -1.551606 1.843226 20.255906 0.000000 0.000000 0.000000 -12.065127 18.289293 -13.279731 7.373285 5.077392 10.929353 
1.723366 -0.154455 0.214810 6.021571 17.351777 -6.314166 -0.000000 0.000000 -0.000000 -6.439646 -2.688835 1.533913 0.204757 -1.184675 -1.459439 0.000000 0.000000 0.000000 0.442514 -1.621488 -2.472114 4.246941 -3.486574 -3.435903 -0.434362 -1.609418 -2.684570 -27.716064 -2.117787 4.325365 -44.371797 4.608621 -3.005638 0.063469 -18.762126 8.129776 0.119349 -1.381418 -0.611131 9.727848 7.053186 1.710645 59.492546 7.029003 1.001092 -0.242504 52.695583 -0.793715 0.000000 0.000000 -0.000000 -16.571940 17.018837 0.032272 -1.833643 2.019836 20.027800 0.000000 0.000000 0.000000 -13.490421 17.538832 -15.303537 7.435530 5.526421 15.617884 
2.070379 -0.157583 0.160883 6.222017 16.719765 -6.097953 -0.000000 0.000000 -0.000000 -6.689756 -2.360466 0.996174 0.033545 -1.129735 -1.467238 0.000000 0.000000 0.000000 0.145349 -1.679670 -2.592908 4.063800 -3.585961 -3.048430 -0.592229 -1.656038 -2.714514 -29.653474 -1.299613 4.944378 -42.324669 4.377867 -2.313230 0.489086 -14.656259 9.470586 0.002696 -1.423952 -0.693441 8.242773 7.190352 1.558945 60.648322 6.862348 0.119650 -0.108980 53.171586 -0.828704 0.000000 0.000000 -0.000000 -17.094574 17.289431 0.076981 -1.913917 2.067586 19.769535 0.000000 0.000000 0.000000 -14.473604 16.699104 -16.189787 7.566963 6.289055 18.554409 
